{
	"asset":{
		"generator":"Khronos glTF Blender I/O v4.4.56",
		"version":"2.0"
	},
	"scene":0,
	"scenes":[
		{
			"name":"Scene",
			"nodes":[
				0
			]
		}
	],
	"nodes":[
		{
			"mesh":0,
			"name":"well"
		}
	],
	"materials":[
		{
			"alphaMode":"BLEND",
			"doubleSided":true,
			"name":"well",
			"pbrMetallicRoughness":{
				"baseColorTexture":{
					"index":0
				},
				"metallicFactor":0
			}
		}
	],
	"meshes":[
		{
			"name":"well",
			"primitives":[
				{
					"attributes":{
						"POSITION":0,
						"NORMAL":1,
						"TEXCOORD_0":2
					},
					"indices":3,
					"material":0
				}
			]
		}
	],
	"textures":[
		{
			"sampler":0,
			"source":0
		}
	],
	"images":[
		{
			"mimeType":"image/png",
			"name":"well",
			"uri":"well.png"
		}
	],
	"accessors":[
		{
			"bufferView":0,
			"componentType":5126,
			"count":384,
			"max":[
				1.0345860719680786,
				1.0560016632080078,
				1.1946370601654053
			],
			"min":[
				-1.0345860719680786,
				-0.5973185300827026,
				-1.5879473686218262
			],
			"type":"VEC3"
		},
		{
			"bufferView":1,
			"componentType":5126,
			"count":384,
			"type":"VEC3"
		},
		{
			"bufferView":2,
			"componentType":5126,
			"count":384,
			"type":"VEC2"
		},
		{
			"bufferView":3,
			"componentType":5123,
			"count":576,
			"type":"SCALAR"
		}
	],
	"bufferViews":[
		{
			"buffer":0,
			"byteLength":4608,
			"byteOffset":0,
			"target":34962
		},
		{
			"buffer":0,
			"byteLength":4608,
			"byteOffset":4608,
			"target":34962
		},
		{
			"buffer":0,
			"byteLength":3072,
			"byteOffset":9216,
			"target":34962
		},
		{
			"buffer":0,
			"byteLength":1152,
			"byteOffset":12288,
			"target":34963
		}
	],
	"samplers":[
		{
			"magFilter":9728,
			"minFilter":9984
		}
	],
	"buffers":[
		{
			"byteLength":13440,
			"uri":"well.bin"
		}
	]
}
