{
	"asset":{
		"generator":"Khronos glTF Blender I/O v4.4.56",
		"version":"2.0"
	},
	"scene":0,
	"scenes":[
		{
			"name":"Scene",
			"nodes":[
				9
			]
		}
	],
	"nodes":[
		{
			"name":"finger1",
			"rotation":[
				0.028102068230509758,
				0.014164532534778118,
				-0.24433469772338867,
				0.969180166721344
			],
			"scale":[
				0.9999998807907104,
				1,
				1
			],
			"translation":[
				-3.3527612686157227e-07,
				0.40975111722946167,
				-2.60770320892334e-08
			]
		},
		{
			"children":[
				0
			],
			"name":"finger0",
			"rotation":[
				-0.28283947706222534,
				-0.03922944888472557,
				-0.12988463044166565,
				0.9495224356651306
			],
			"scale":[
				1.0000001192092896,
				1.0000001192092896,
				1.0000001192092896
			],
			"translation":[
				8.754432201385498e-08,
				0.7865898013114929,
				1.3150274753570557e-06
			]
		},
		{
			"children":[
				1
			],
			"name":"hand0",
			"rotation":[
				-0.6381404399871826,
				1.1491803064700434e-08,
				0.00523342052474618,
				0.769902229309082
			],
			"scale":[
				0.9999998807907104,
				0.9999999403953552,
				1
			],
			"translation":[
				3.4458935260772705e-07,
				4.518563270568848,
				-1.9744038581848145e-07
			]
		},
		{
			"name":"fingers1",
			"rotation":[
				-0.04429251700639725,
				-0.00840156339108944,
				-0.012082110159099102,
				0.9989102482795715
			],
			"scale":[
				0.9999999403953552,
				0.9999999403953552,
				0.9999998807907104
			],
			"translation":[
				-2.384185791015625e-07,
				0.5937148332595825,
				3.2782554626464844e-07
			]
		},
		{
			"children":[
				3
			],
			"name":"fingers0",
			"rotation":[
				-0.000678833166602999,
				0.003663614857941866,
				-0.09951693564653397,
				0.9950289130210876
			],
			"scale":[
				1,
				1.0000001192092896,
				0.9999999403953552
			],
			"translation":[
				-1.7881393432617188e-07,
				0.8604869246482849,
				-5.662441253662109e-07
			]
		},
		{
			"children":[
				4
			],
			"name":"hand1",
			"rotation":[
				-0.20682941377162933,
				0.03667465224862099,
				-0.09330975264310837,
				0.9732265472412109
			],
			"scale":[
				0.9999999403953552,
				1.0000001192092896,
				1.0000001192092896
			],
			"translation":[
				3.4458935260772705e-07,
				4.518563270568848,
				-1.9744038581848145e-07
			]
		},
		{
			"children":[
				2,
				5
			],
			"name":"forearm",
			"rotation":[
				-0.05046882480382919,
				4.643318618491321e-08,
				-0.1083182767033577,
				0.9928343892097473
			],
			"scale":[
				0.9999998807907104,
				1,
				0.9999999403953552
			],
			"translation":[
				2.980232238769531e-07,
				4.765118598937988,
				-3.203749656677246e-07
			]
		},
		{
			"children":[
				6
			],
			"name":"shoulder",
			"rotation":[
				0.869230329990387,
				-0.09427583962678909,
				0.053908899426460266,
				0.4823324680328369
			],
			"scale":[
				0.9999998807907104,
				1,
				1
			],
			"translation":[
				0,
				0.013109833002090454,
				0.1573178768157959
			]
		},
		{
			"mesh":0,
			"name":"right_arm",
			"skin":0
		},
		{
			"children":[
				8,
				7
			],
			"name":"right_arm_model",
			"translation":[
				-3.167534589767456,
				-0.2140200436115265,
				-0.951674222946167
			]
		}
	],
	"animations":[
		{
			"channels":[
				{
					"sampler":0,
					"target":{
						"node":7,
						"path":"translation"
					}
				},
				{
					"sampler":1,
					"target":{
						"node":7,
						"path":"rotation"
					}
				},
				{
					"sampler":2,
					"target":{
						"node":7,
						"path":"scale"
					}
				},
				{
					"sampler":3,
					"target":{
						"node":6,
						"path":"translation"
					}
				},
				{
					"sampler":4,
					"target":{
						"node":6,
						"path":"rotation"
					}
				},
				{
					"sampler":5,
					"target":{
						"node":6,
						"path":"scale"
					}
				},
				{
					"sampler":6,
					"target":{
						"node":2,
						"path":"translation"
					}
				},
				{
					"sampler":7,
					"target":{
						"node":2,
						"path":"rotation"
					}
				},
				{
					"sampler":8,
					"target":{
						"node":2,
						"path":"scale"
					}
				},
				{
					"sampler":9,
					"target":{
						"node":1,
						"path":"translation"
					}
				},
				{
					"sampler":10,
					"target":{
						"node":1,
						"path":"rotation"
					}
				},
				{
					"sampler":11,
					"target":{
						"node":1,
						"path":"scale"
					}
				},
				{
					"sampler":12,
					"target":{
						"node":0,
						"path":"translation"
					}
				},
				{
					"sampler":13,
					"target":{
						"node":0,
						"path":"rotation"
					}
				},
				{
					"sampler":14,
					"target":{
						"node":0,
						"path":"scale"
					}
				},
				{
					"sampler":15,
					"target":{
						"node":5,
						"path":"translation"
					}
				},
				{
					"sampler":16,
					"target":{
						"node":5,
						"path":"rotation"
					}
				},
				{
					"sampler":17,
					"target":{
						"node":5,
						"path":"scale"
					}
				},
				{
					"sampler":18,
					"target":{
						"node":4,
						"path":"translation"
					}
				},
				{
					"sampler":19,
					"target":{
						"node":4,
						"path":"rotation"
					}
				},
				{
					"sampler":20,
					"target":{
						"node":4,
						"path":"scale"
					}
				},
				{
					"sampler":21,
					"target":{
						"node":3,
						"path":"translation"
					}
				},
				{
					"sampler":22,
					"target":{
						"node":3,
						"path":"rotation"
					}
				},
				{
					"sampler":23,
					"target":{
						"node":3,
						"path":"scale"
					}
				},
				{
					"sampler":24,
					"target":{
						"node":9,
						"path":"translation"
					}
				},
				{
					"sampler":25,
					"target":{
						"node":9,
						"path":"rotation"
					}
				},
				{
					"sampler":26,
					"target":{
						"node":9,
						"path":"scale"
					}
				}
			],
			"name":"idle",
			"samplers":[
				{
					"input":7,
					"interpolation":"STEP",
					"output":8
				},
				{
					"input":7,
					"interpolation":"STEP",
					"output":9
				},
				{
					"input":7,
					"interpolation":"STEP",
					"output":10
				},
				{
					"input":7,
					"interpolation":"STEP",
					"output":11
				},
				{
					"input":7,
					"interpolation":"STEP",
					"output":12
				},
				{
					"input":7,
					"interpolation":"STEP",
					"output":13
				},
				{
					"input":7,
					"interpolation":"STEP",
					"output":14
				},
				{
					"input":7,
					"interpolation":"STEP",
					"output":15
				},
				{
					"input":7,
					"interpolation":"STEP",
					"output":16
				},
				{
					"input":7,
					"interpolation":"STEP",
					"output":17
				},
				{
					"input":7,
					"interpolation":"STEP",
					"output":18
				},
				{
					"input":7,
					"interpolation":"STEP",
					"output":19
				},
				{
					"input":7,
					"interpolation":"STEP",
					"output":20
				},
				{
					"input":7,
					"interpolation":"STEP",
					"output":21
				},
				{
					"input":7,
					"interpolation":"STEP",
					"output":22
				},
				{
					"input":7,
					"interpolation":"STEP",
					"output":23
				},
				{
					"input":7,
					"interpolation":"STEP",
					"output":24
				},
				{
					"input":7,
					"interpolation":"STEP",
					"output":25
				},
				{
					"input":7,
					"interpolation":"STEP",
					"output":26
				},
				{
					"input":7,
					"interpolation":"STEP",
					"output":27
				},
				{
					"input":7,
					"interpolation":"STEP",
					"output":28
				},
				{
					"input":7,
					"interpolation":"STEP",
					"output":29
				},
				{
					"input":7,
					"interpolation":"STEP",
					"output":30
				},
				{
					"input":7,
					"interpolation":"STEP",
					"output":31
				},
				{
					"input":7,
					"interpolation":"LINEAR",
					"output":32
				},
				{
					"input":7,
					"interpolation":"LINEAR",
					"output":33
				},
				{
					"input":7,
					"interpolation":"LINEAR",
					"output":34
				}
			]
		}
	],
	"materials":[
		{
			"doubleSided":true,
			"name":"right_arm",
			"pbrMetallicRoughness":{
				"baseColorTexture":{
					"index":0
				},
				"metallicFactor":0
			}
		}
	],
	"meshes":[
		{
			"name":"right_arm",
			"primitives":[
				{
					"attributes":{
						"POSITION":0,
						"NORMAL":1,
						"TEXCOORD_0":2,
						"JOINTS_0":3,
						"WEIGHTS_0":4
					},
					"indices":5,
					"material":0
				}
			]
		}
	],
	"textures":[
		{
			"sampler":0,
			"source":0
		}
	],
	"images":[
		{
			"mimeType":"image/png",
			"name":"arms",
			"uri":"arms.png"
		}
	],
	"skins":[
		{
			"inverseBindMatrices":6,
			"joints":[
				7,
				6,
				2,
				1,
				0,
				5,
				4,
				3
			],
			"name":"right_arm_model"
		}
	],
	"accessors":[
		{
			"bufferView":0,
			"componentType":5126,
			"count":152,
			"max":[
				-2.480527400970459,
				0.6803826689720154,
				9.551179885864258
			],
			"min":[
				-4.875391006469727,
				-5.31581974029541,
				-1.2012996673583984
			],
			"type":"VEC3"
		},
		{
			"bufferView":1,
			"componentType":5126,
			"count":152,
			"type":"VEC3"
		},
		{
			"bufferView":2,
			"componentType":5126,
			"count":152,
			"type":"VEC2"
		},
		{
			"bufferView":3,
			"componentType":5121,
			"count":152,
			"type":"VEC4"
		},
		{
			"bufferView":4,
			"componentType":5126,
			"count":152,
			"type":"VEC4"
		},
		{
			"bufferView":5,
			"componentType":5123,
			"count":228,
			"type":"SCALAR"
		},
		{
			"bufferView":6,
			"componentType":5126,
			"count":8,
			"type":"MAT4"
		},
		{
			"bufferView":7,
			"componentType":5126,
			"count":1,
			"max":[
				0.041666666666666664
			],
			"min":[
				0.041666666666666664
			],
			"type":"SCALAR"
		},
		{
			"bufferView":8,
			"componentType":5126,
			"count":1,
			"type":"VEC3"
		},
		{
			"bufferView":9,
			"componentType":5126,
			"count":1,
			"type":"VEC4"
		},
		{
			"bufferView":10,
			"componentType":5126,
			"count":1,
			"type":"VEC3"
		},
		{
			"bufferView":11,
			"componentType":5126,
			"count":1,
			"type":"VEC3"
		},
		{
			"bufferView":12,
			"componentType":5126,
			"count":1,
			"type":"VEC4"
		},
		{
			"bufferView":13,
			"componentType":5126,
			"count":1,
			"type":"VEC3"
		},
		{
			"bufferView":14,
			"componentType":5126,
			"count":1,
			"type":"VEC3"
		},
		{
			"bufferView":15,
			"componentType":5126,
			"count":1,
			"type":"VEC4"
		},
		{
			"bufferView":16,
			"componentType":5126,
			"count":1,
			"type":"VEC3"
		},
		{
			"bufferView":17,
			"componentType":5126,
			"count":1,
			"type":"VEC3"
		},
		{
			"bufferView":18,
			"componentType":5126,
			"count":1,
			"type":"VEC4"
		},
		{
			"bufferView":19,
			"componentType":5126,
			"count":1,
			"type":"VEC3"
		},
		{
			"bufferView":20,
			"componentType":5126,
			"count":1,
			"type":"VEC3"
		},
		{
			"bufferView":21,
			"componentType":5126,
			"count":1,
			"type":"VEC4"
		},
		{
			"bufferView":22,
			"componentType":5126,
			"count":1,
			"type":"VEC3"
		},
		{
			"bufferView":23,
			"componentType":5126,
			"count":1,
			"type":"VEC3"
		},
		{
			"bufferView":24,
			"componentType":5126,
			"count":1,
			"type":"VEC4"
		},
		{
			"bufferView":25,
			"componentType":5126,
			"count":1,
			"type":"VEC3"
		},
		{
			"bufferView":26,
			"componentType":5126,
			"count":1,
			"type":"VEC3"
		},
		{
			"bufferView":27,
			"componentType":5126,
			"count":1,
			"type":"VEC4"
		},
		{
			"bufferView":28,
			"componentType":5126,
			"count":1,
			"type":"VEC3"
		},
		{
			"bufferView":29,
			"componentType":5126,
			"count":1,
			"type":"VEC3"
		},
		{
			"bufferView":30,
			"componentType":5126,
			"count":1,
			"type":"VEC4"
		},
		{
			"bufferView":31,
			"componentType":5126,
			"count":1,
			"type":"VEC3"
		},
		{
			"bufferView":32,
			"componentType":5126,
			"count":1,
			"type":"VEC3"
		},
		{
			"bufferView":33,
			"componentType":5126,
			"count":1,
			"type":"VEC4"
		},
		{
			"bufferView":34,
			"componentType":5126,
			"count":1,
			"type":"VEC3"
		}
	],
	"bufferViews":[
		{
			"buffer":0,
			"byteLength":1824,
			"byteOffset":0,
			"target":34962
		},
		{
			"buffer":0,
			"byteLength":1824,
			"byteOffset":1824,
			"target":34962
		},
		{
			"buffer":0,
			"byteLength":1216,
			"byteOffset":3648,
			"target":34962
		},
		{
			"buffer":0,
			"byteLength":608,
			"byteOffset":4864,
			"target":34962
		},
		{
			"buffer":0,
			"byteLength":2432,
			"byteOffset":5472,
			"target":34962
		},
		{
			"buffer":0,
			"byteLength":456,
			"byteOffset":7904,
			"target":34963
		},
		{
			"buffer":0,
			"byteLength":512,
			"byteOffset":8360
		},
		{
			"buffer":0,
			"byteLength":4,
			"byteOffset":8872
		},
		{
			"buffer":0,
			"byteLength":12,
			"byteOffset":8876
		},
		{
			"buffer":0,
			"byteLength":16,
			"byteOffset":8888
		},
		{
			"buffer":0,
			"byteLength":12,
			"byteOffset":8904
		},
		{
			"buffer":0,
			"byteLength":12,
			"byteOffset":8916
		},
		{
			"buffer":0,
			"byteLength":16,
			"byteOffset":8928
		},
		{
			"buffer":0,
			"byteLength":12,
			"byteOffset":8944
		},
		{
			"buffer":0,
			"byteLength":12,
			"byteOffset":8956
		},
		{
			"buffer":0,
			"byteLength":16,
			"byteOffset":8968
		},
		{
			"buffer":0,
			"byteLength":12,
			"byteOffset":8984
		},
		{
			"buffer":0,
			"byteLength":12,
			"byteOffset":8996
		},
		{
			"buffer":0,
			"byteLength":16,
			"byteOffset":9008
		},
		{
			"buffer":0,
			"byteLength":12,
			"byteOffset":9024
		},
		{
			"buffer":0,
			"byteLength":12,
			"byteOffset":9036
		},
		{
			"buffer":0,
			"byteLength":16,
			"byteOffset":9048
		},
		{
			"buffer":0,
			"byteLength":12,
			"byteOffset":9064
		},
		{
			"buffer":0,
			"byteLength":12,
			"byteOffset":9076
		},
		{
			"buffer":0,
			"byteLength":16,
			"byteOffset":9088
		},
		{
			"buffer":0,
			"byteLength":12,
			"byteOffset":9104
		},
		{
			"buffer":0,
			"byteLength":12,
			"byteOffset":9116
		},
		{
			"buffer":0,
			"byteLength":16,
			"byteOffset":9128
		},
		{
			"buffer":0,
			"byteLength":12,
			"byteOffset":9144
		},
		{
			"buffer":0,
			"byteLength":12,
			"byteOffset":9156
		},
		{
			"buffer":0,
			"byteLength":16,
			"byteOffset":9168
		},
		{
			"buffer":0,
			"byteLength":12,
			"byteOffset":9184
		},
		{
			"buffer":0,
			"byteLength":12,
			"byteOffset":9196
		},
		{
			"buffer":0,
			"byteLength":16,
			"byteOffset":9208
		},
		{
			"buffer":0,
			"byteLength":12,
			"byteOffset":9224
		}
	],
	"samplers":[
		{
			"magFilter":9728,
			"minFilter":9984
		}
	],
	"buffers":[
		{
			"byteLength":9236,
			"uri":"arms.bin"
		}
	]
}
