{
	"asset":{
		"generator":"Khronos glTF Blender I/O v4.4.56",
		"version":"2.0"
	},
	"scene":0,
	"scenes":[
		{
			"name":"Scene",
			"nodes":[
				0
			]
		}
	],
	"nodes":[
		{
			"mesh":0,
			"name":"sword"
		}
	],
	"materials":[
		{
			"alphaMode":"BLEND",
			"doubleSided":true,
			"name":"sword",
			"pbrMetallicRoughness":{
				"baseColorTexture":{
					"index":0
				},
				"metallicFactor":0
			}
		}
	],
	"meshes":[
		{
			"name":"sword",
			"primitives":[
				{
					"attributes":{
						"POSITION":0,
						"NORMAL":1,
						"TEXCOORD_0":2
					},
					"indices":3,
					"material":0
				}
			]
		}
	],
	"textures":[
		{
			"sampler":0,
			"source":0
		}
	],
	"images":[
		{
			"mimeType":"image/png",
			"name":"sword",
			"uri":"sword.png"
		}
	],
	"accessors":[
		{
			"bufferView":0,
			"componentType":5126,
			"count":434,
			"max":[
				5.101738452911377,
				39.72917556762695,
				1
			],
			"min":[
				-5.101738452911377,
				-1.3274089097976685,
				-1
			],
			"type":"VEC3"
		},
		{
			"bufferView":1,
			"componentType":5126,
			"count":434,
			"type":"VEC3"
		},
		{
			"bufferView":2,
			"componentType":5126,
			"count":434,
			"type":"VEC2"
		},
		{
			"bufferView":3,
			"componentType":5123,
			"count":654,
			"type":"SCALAR"
		}
	],
	"bufferViews":[
		{
			"buffer":0,
			"byteLength":5208,
			"byteOffset":0,
			"target":34962
		},
		{
			"buffer":0,
			"byteLength":5208,
			"byteOffset":5208,
			"target":34962
		},
		{
			"buffer":0,
			"byteLength":3472,
			"byteOffset":10416,
			"target":34962
		},
		{
			"buffer":0,
			"byteLength":1308,
			"byteOffset":13888,
			"target":34963
		}
	],
	"samplers":[
		{
			"magFilter":9728,
			"minFilter":9984
		}
	],
	"buffers":[
		{
			"byteLength":15196,
			"uri":"sword.bin"
		}
	]
}
