{
	"asset":{
		"generator":"Khronos glTF Blender I/O v4.4.56",
		"version":"2.0"
	},
	"scene":0,
	"scenes":[
		{
			"name":"Scene",
			"nodes":[
				17
			]
		}
	],
	"nodes":[
		{
			"name":"fingers1_0",
			"rotation":[
				0.029995271936058998,
				0.0036059091798961163,
				-0.16057635843753815,
				0.9865609407424927
			],
			"scale":[
				1,
				1,
				1.0000001192092896
			],
			"translation":[
				4.76837158203125e-07,
				0.4504195749759674,
				2.2351741790771484e-07
			]
		},
		{
			"children":[
				0
			],
			"name":"fingers1",
			"rotation":[
				-0.1175481528043747,
				-0.1544223427772522,
				0.04971092939376831,
				0.979727029800415
			],
			"translation":[
				-1.1920928955078125e-07,
				0.9881722927093506,
				-3.5762786865234375e-07
			]
		},
		{
			"name":"thumb1_1",
			"rotation":[
				-0.08521587401628494,
				0.005632344167679548,
				-0.08773808181285858,
				0.9924759864807129
			],
			"scale":[
				0.9999999403953552,
				0.9999998807907104,
				0.9999998807907104
			],
			"translation":[
				2.384185791015625e-07,
				0.24883991479873657,
				3.5762786865234375e-07
			]
		},
		{
			"children":[
				2
			],
			"name":"thumb1_0",
			"rotation":[
				-0.11866860091686249,
				0.012716011144220829,
				-0.38948678970336914,
				0.9132667183876038
			],
			"scale":[
				1,
				1.0000001192092896,
				1
			],
			"translation":[
				5.960464477539063e-08,
				1.115404725074768,
				-1.0132789611816406e-06
			]
		},
		{
			"children":[
				3
			],
			"name":"thumb1",
			"rotation":[
				-0.794539213180542,
				-0.28924885392189026,
				0.2747288644313812,
				0.4577845335006714
			],
			"scale":[
				1.0000001192092896,
				1.0000001192092896,
				1.0000003576278687
			],
			"translation":[
				-1.1920928955078125e-07,
				0.9881722927093506,
				-3.5762786865234375e-07
			]
		},
		{
			"children":[
				1,
				4
			],
			"name":"hand1",
			"rotation":[
				-0.16750554740428925,
				0.08986612409353256,
				-0.10692448168992996,
				0.9759268164634705
			],
			"translation":[
				6.854534149169922e-07,
				4.281915187835693,
				3.650784492492676e-07
			]
		},
		{
			"children":[
				5
			],
			"name":"forearm1",
			"rotation":[
				-0.06065796688199043,
				0.009099406190216541,
				-0.13417765498161316,
				0.9890572428703308
			],
			"scale":[
				0.9999998807907104,
				1,
				0.9999999403953552
			],
			"translation":[
				-1.4901161193847656e-07,
				4.89266300201416,
				-1.6391277313232422e-07
			]
		},
		{
			"children":[
				6
			],
			"name":"shoulder1",
			"rotation":[
				0.8757445216178894,
				-0.09714379161596298,
				0.059410687536001205,
				0.4691534638404846
			],
			"scale":[
				1,
				1,
				0.9999998807907104
			],
			"translation":[
				-6.583838939666748,
				0.06705853343009949,
				0
			]
		},
		{
			"name":"fingers0.001",
			"rotation":[
				-0.004192672204226255,
				-0.005261148791760206,
				0.11364570260047913,
				0.9934985637664795
			],
			"scale":[
				1.0000001192092896,
				1,
				1
			],
			"translation":[
				5.21540641784668e-07,
				0.4675244092941284,
				-1.1175870895385742e-07
			]
		},
		{
			"children":[
				8
			],
			"name":"fingers0",
			"rotation":[
				-0.02069927752017975,
				0.00127882428932935,
				0.09509698301553726,
				0.9952520132064819
			],
			"scale":[
				0.9999999403953552,
				0.9999999403953552,
				0.9999999403953552
			],
			"translation":[
				2.5331974029541016e-07,
				0.8729475736618042,
				-8.940696716308594e-08
			]
		},
		{
			"name":"thumb0_1",
			"rotation":[
				0.19516675174236298,
				-0.0034099093172699213,
				0.1806766837835312,
				0.9639783501625061
			],
			"scale":[
				1,
				1,
				0.9999999403953552
			],
			"translation":[
				-5.960464477539063e-08,
				0.4470721483230591,
				4.172325134277344e-07
			]
		},
		{
			"children":[
				10
			],
			"name":"thumb0_0",
			"rotation":[
				0.3451557755470276,
				-0.011974621564149857,
				-0.051781170070171356,
				0.9370393753051758
			],
			"scale":[
				1,
				1,
				1.0000001192092896
			],
			"translation":[
				2.384185791015625e-07,
				0.6860778331756592,
				-2.980232238769531e-07
			]
		},
		{
			"children":[
				11
			],
			"name":"thumb0",
			"rotation":[
				-0.8303753137588501,
				-0.18825198709964752,
				0.30173683166503906,
				0.4289439916610718
			],
			"scale":[
				1,
				1,
				1.000000238418579
			],
			"translation":[
				2.5331974029541016e-07,
				0.8729475736618042,
				-8.940696716308594e-08
			]
		},
		{
			"children":[
				9,
				12
			],
			"name":"hand0",
			"rotation":[
				-0.20306836068630219,
				-0.008852647617459297,
				0.06195136904716492,
				0.9771627187728882
			],
			"scale":[
				1,
				1,
				1.0000001192092896
			],
			"translation":[
				4.507601261138916e-07,
				4.383406162261963,
				1.0058283805847168e-07
			]
		},
		{
			"children":[
				13
			],
			"name":"forearm0",
			"rotation":[
				-0.041826821863651276,
				3.113513358243836e-08,
				0.09515885263681412,
				0.994583010673523
			],
			"scale":[
				1,
				0.9999999403953552,
				0.9999999403953552
			],
			"translation":[
				1.7881393432617188e-07,
				4.7162909507751465,
				9.313225746154785e-09
			]
		},
		{
			"children":[
				14
			],
			"name":"shoulder0",
			"rotation":[
				0.867011308670044,
				0.0839223712682724,
				-0.045660074800252914,
				0.48904362320899963
			],
			"scale":[
				0.9999999403953552,
				0.9999999403953552,
				0.9999997019767761
			]
		},
		{
			"mesh":0,
			"name":"arms",
			"skin":0
		},
		{
			"children":[
				16,
				7,
				15
			],
			"name":"arms_model",
			"translation":[
				3.3069980144500732,
				-0.2115175873041153,
				-0.7124209403991699
			]
		}
	],
	"materials":[
		{
			"doubleSided":true,
			"name":"arms",
			"pbrMetallicRoughness":{
				"baseColorTexture":{
					"index":0
				},
				"metallicFactor":0
			}
		}
	],
	"meshes":[
		{
			"name":"arms",
			"primitives":[
				{
					"attributes":{
						"POSITION":0,
						"NORMAL":1,
						"TEXCOORD_0":2,
						"JOINTS_0":3,
						"WEIGHTS_0":4
					},
					"indices":5,
					"material":0
				}
			]
		}
	],
	"textures":[
		{
			"sampler":0,
			"source":0
		}
	],
	"images":[
		{
			"mimeType":"image/png",
			"name":"arms",
			"uri":"arms.png"
		}
	],
	"skins":[
		{
			"inverseBindMatrices":6,
			"joints":[
				7,
				6,
				5,
				1,
				0,
				4,
				3,
				2,
				15,
				14,
				13,
				9,
				8,
				12,
				11,
				10
			],
			"name":"arms_model"
		}
	],
	"accessors":[
		{
			"bufferView":0,
			"componentType":5126,
			"count":304,
			"max":[
				4.875391006469727,
				0.6803826689720154,
				9.551179885864258
			],
			"min":[
				-4.875391006469727,
				-5.31581974029541,
				-1.2012996673583984
			],
			"type":"VEC3"
		},
		{
			"bufferView":1,
			"componentType":5126,
			"count":304,
			"type":"VEC3"
		},
		{
			"bufferView":2,
			"componentType":5126,
			"count":304,
			"type":"VEC2"
		},
		{
			"bufferView":3,
			"componentType":5121,
			"count":304,
			"type":"VEC4"
		},
		{
			"bufferView":4,
			"componentType":5126,
			"count":304,
			"type":"VEC4"
		},
		{
			"bufferView":5,
			"componentType":5123,
			"count":456,
			"type":"SCALAR"
		},
		{
			"bufferView":6,
			"componentType":5126,
			"count":16,
			"type":"MAT4"
		}
	],
	"bufferViews":[
		{
			"buffer":0,
			"byteLength":3648,
			"byteOffset":0,
			"target":34962
		},
		{
			"buffer":0,
			"byteLength":3648,
			"byteOffset":3648,
			"target":34962
		},
		{
			"buffer":0,
			"byteLength":2432,
			"byteOffset":7296,
			"target":34962
		},
		{
			"buffer":0,
			"byteLength":1216,
			"byteOffset":9728,
			"target":34962
		},
		{
			"buffer":0,
			"byteLength":4864,
			"byteOffset":10944,
			"target":34962
		},
		{
			"buffer":0,
			"byteLength":912,
			"byteOffset":15808,
			"target":34963
		},
		{
			"buffer":0,
			"byteLength":1024,
			"byteOffset":16720
		}
	],
	"samplers":[
		{
			"magFilter":9728,
			"minFilter":9984
		}
	],
	"buffers":[
		{
			"byteLength":17744,
			"uri":"arms.bin"
		}
	]
}
